<svg xmlns="http://www.w3.org/2000/svg" viewBox="0 0 1854.92 1179.24"><defs><style>.cls-1{isolation:isolate;}.cls-2,.cls-23{opacity:0.5;}.cls-3{fill:#8aa5b5;}.cls-4{fill:#829eb0;}.cls-5{fill:#cee6f5;}.cls-6{fill:#ff625e;}.cls-7{fill:#c23936;}.cls-8{fill:#254354;}.cls-9{fill:#4c5c66;}.cls-10{fill:#f9b624;}.cls-11{fill:#eb4d4a;}.cls-12,.cls-31{fill:#95afc0;}.cls-13{fill:#b4ccdb;}.cls-13,.cls-31{mix-blend-mode:multiply;}.cls-14{fill:#456a96;}.cls-15{fill:#43a2e6;}.cls-16{fill:#3b587a;}.cls-17{fill:#638ab8;}.cls-18{fill:#f0b222;}.cls-19{fill:#f09022;}.cls-20{fill:#f07b22;}.cls-21{fill:#f0ca22;}.cls-22{fill:#c8e8e8;}.cls-23,.cls-34{fill:#e6f5ff;}.cls-24{fill:#90d4d4;}.cls-25{fill:#81b031;}.cls-26{fill:#a7c44f;}.cls-27{fill:#5d8023;}.cls-28{fill:#1a6aa3;}.cls-29{fill:#729c2b;}.cls-30{fill:#d2d461;}.cls-32{fill:#6b8291;}.cls-33{fill:#405563;}.cls-34{opacity:0.2;}.cls-35{fill:#d4581e;}.cls-36{fill:#f0a422;}.cls-37{fill:#eb6e21;}</style></defs><g class="cls-1"><g id="_Layer_" data-name="&lt;Layer&gt;"><g class="cls-2"><path class="cls-3" d="M694.79,734.28h37.07a8.48,8.48,0,0,0,8.47-8.48v-5.91h4.59V704.27h6.75l12-3.82v69.89h5.12v-1.06h72.37v1.06h5.12V700.45l12,3.82H865v15.62h4.59v5.91a8.48,8.48,0,0,0,8.48,8.48h37.07a8.48,8.48,0,0,0,8.47-8.48V664a8.47,8.47,0,0,0-8.47-8.47h-22V643a16.24,16.24,0,0,0-4.74-11.46,16.21,16.21,0,0,1-4.75-11.46v-59.7l6.56-13.08a17.13,17.13,0,0,0,1.83-7.72V512.86a17.21,17.21,0,0,0-7.93-14.5l-17.36-11.12a80.49,80.49,0,0,1-31.41-38.09h0a80.6,80.6,0,0,1-5.53-24.69l-.21-3.45,7.19-2.48,21.18-20.67H865V422.5h4.59v5.92a8.48,8.48,0,0,0,8.48,8.47h24.36a8.47,8.47,0,0,0,8.47-8.47V366.63a8.47,8.47,0,0,0-8.47-8.47H878a8.48,8.48,0,0,0-8.48,8.47v5.92H865v8.91l-38.59-14.84-.13,2-.91-14.66h11.39V333.45H824l-1.7-27.19h11.2l29.66,17.66h20.15L892,338.74h11.83v-5.29h7.06l-7.06-13.32v-40.7h-8.47v-6.35H871a3.18,3.18,0,0,0-3.18,3.18,3.17,3.17,0,0,1-3.18,3.17h-44l-.93-14.93a12.85,12.85,0,0,0-10.06-11.75,21.78,21.78,0,0,0-9.44,0,12.85,12.85,0,0,0-10.06,11.75l-.94,14.93h-44a3.17,3.17,0,0,1-3.17-3.17,3.18,3.18,0,0,0-3.18-3.18H714.56v6.35h-8.47v40.7L699,333.45h7.06v5.29h11.82l8.63-14.82h20.15l29.65-17.66h11.2l-1.7,27.19H773.16v20.48h11.4l-.92,14.65-.12-2-38.6,14.84v-8.91h-4.59v-5.92a8.47,8.47,0,0,0-8.47-8.47H707.5a8.47,8.47,0,0,0-8.47,8.47v61.79a8.47,8.47,0,0,0,8.47,8.47h24.36a8.47,8.47,0,0,0,8.47-8.47V422.5h4.59V397.86H752l21.18,20.67,7.2,2.48-.22,3.45a80.59,80.59,0,0,1-5.52,24.69h0a80.57,80.57,0,0,1-31.42,38.09l-17.35,11.12a17.2,17.2,0,0,0-7.94,14.5v26.75a17.26,17.26,0,0,0,1.83,7.72l6.57,13.08v59.7a16.21,16.21,0,0,1-4.75,11.46A16.21,16.21,0,0,0,716.81,643v12.52h-22a8.47,8.47,0,0,0-8.47,8.47V725.8A8.48,8.48,0,0,0,694.79,734.28ZM865,389.94l-7.06-1.45-23.3,18.74h-5.94l-1.57-25.07Zm-89.67,17.29L752,388.49l-7.06,1.45,37.87-7.78-1.57,25.07Z" transform="translate(-294.29 -228.78)"/><path class="cls-3" d="M1702.19,1268.52h-41.38a9.1,9.1,0,0,0-9.11,9.1V1284h-4.93v18.29l-18.11-5.57-18.82-12.62v-204.5l5.69-27.22-5.38-20.69h36.62v20h4.93v6.36a9.11,9.11,0,0,0,9.11,9.11H1687a9.11,9.11,0,0,0,9.11-9.11V991.64a9.11,9.11,0,0,0-9.11-9.11h-26.18a9.11,9.11,0,0,0-9.11,9.11V998h-4.93v27.77l-28.29-8.09,6.07-7.88,22.22,11.22v-3.17l-46.29-23.36-6-23.18h31.36l.7,5.49h6.33l-4.24-33.34h-6.33l.54,4.22H1588.3l-4.23-16.25H1530.5l-4.23,16.25h-34.51l.54-4.22H1486l-4.23,33.34h6.33l.7-5.49h31.36l-6,23.18-46.29,23.36V1021L1490,1009.8l6.07,7.88-28.29,8.09V998h-4.93v-6.36a9.11,9.11,0,0,0-9.11-9.11h-26.19a9.1,9.1,0,0,0-9.1,9.11v66.41a9.1,9.1,0,0,0,9.1,9.11h26.19a9.11,9.11,0,0,0,9.11-9.11v-6.36h4.93v-20h36.61l-5.38,20.69,5.7,27.22v204.5l-18.83,12.62-18.1,5.57V1284h-4.93v-6.36a9.1,9.1,0,0,0-9.11-9.1h-41.38a9.1,9.1,0,0,0-9.11,9.1V1344a9.11,9.11,0,0,0,9.11,9.11h41.38a9.11,9.11,0,0,0,9.11-9.11v-6.35h4.93V1323l15.09,5.53v13.13H1493v8.76l10.29,10.29h17.63l4.21,8.58v36.85h19.47l12.66,1.9,12.67-1.9h19.47v-36.85l4.21-8.58h17.63l10.29-10.29v-8.76h10.13v-13.13l15.09-5.53v14.7h4.93V1344a9.11,9.11,0,0,0,9.11,9.11h41.38a9.11,9.11,0,0,0,9.11-9.11v-66.41A9.1,9.1,0,0,0,1702.19,1268.52Zm-219.3,49.2-7.28-2.67h7.28Zm0-7.73H1467.8v2.2h0v-4.62l15.09-4.64Zm21.84-13.21-17.5,8.35v-3.54l.52-.16,17-11.28ZM1509,1014l-9,2.58-6.54-8.49,19.7-10Zm92.41-15.86,19.7,10-6.54,8.49-9-2.58Zm25.91,307-17.5-8.34v-6.64l17,11.28.52.16Zm4.34,12.59v-2.67H1639Zm15.09-5.53h0V1310h-15.09v-7.06l15.09,4.64Z" transform="translate(-294.29 -228.78)"/><path class="cls-3" d="M334.75,610.28l5.69,94.37a50,50,0,0,0,1.48,10.25,51.3,51.3,0,0,0,45.51,38.4l133.11.09A53,53,0,0,0,544,746.11a51.29,51.29,0,0,0,24.63-41.23l5.7-94.6a66.52,66.52,0,0,0-8-35.13A67.68,67.68,0,0,1,558.05,540L566.38,344a32.5,32.5,0,0,0-1.88-13l-8.89-24.44a32.32,32.32,0,0,0-22.05-20.18h0a306.73,306.73,0,0,0-158.07,0h0a32.33,32.33,0,0,0-22,20.18l-8.89,24.44a32.33,32.33,0,0,0-1.89,13L351,540a67.68,67.68,0,0,1-8.29,35.11A66.62,66.62,0,0,0,334.75,610.28Z" transform="translate(-294.29 -228.78)"/><path class="cls-3" d="M1295.83,728.26l-20.59-6.12,16.33-26.51V650L1274,591.71V482.52l17.61-26.46-13.2-97.26-20.26-35h0a269.88,269.88,0,0,0-169.07,0h0l-20.25,35-13.21,97.26,17.61,26.46V591.71L1055.58,650v45.61l16.34,26.51-20.6,6.12h0l-15.84,12,1.38,11.93,2.09,18.1,15.83-12.16,33.16-10,5.54,9h160.19l5.54-9,33.16,10,15.83,12.16,2.09-18.1,1.38-11.93-15.84-12Z" transform="translate(-294.29 -228.78)"/><path class="cls-3" d="M1448,773.48c8.74,6.22,23.44,5.33,34.17,5.33h150.29c10.73,0,25.43.89,34.17-5.33a51.63,51.63,0,0,0,18.39-24c10.76-28.75,3.73-121.31,3.73-121.31-2.34-18-11.81-35.56-19.73-51.92L1674.53,442l8.77-16.73V335.47L1669,294.6l-39-31.08-72.63-16.94-72.62,16.94h0l-39,31.08-14.35,40.87h0v89.82L1440,442l5.53,134.28c-7.91,16.36-17.38,33.89-19.72,51.92,0,0-7,92.56,3.73,121.31A51.56,51.56,0,0,0,1448,773.48Z" transform="translate(-294.29 -228.78)"/><path class="cls-3" d="M1044.06,1238.83a144.58,144.58,0,0,0-3.36,31v68.71l16.29,51.15,36.89,18.36h159.39l36.89-18.36,16.29-51.15V1269.8h0a144.58,144.58,0,0,0-3.36-31q-.83-3.81-1.46-7.67a143.69,143.69,0,0,1-1.68-15.5q-.21-3.89-.21-7.8v-140h0l4.31-13.12V963l-13.25-20.16,7.44,11.32a53.24,53.24,0,0,0-6.19-24.94l-3.71-7a45.3,45.3,0,0,0-25.68-21.77h0a253.5,253.5,0,0,0-80.32-13.06h-17.53a253.54,253.54,0,0,0-80.32,13.06,45.25,45.25,0,0,0-25.67,21.77l-3.72,7a53.36,53.36,0,0,0-6.19,24.94h0L1043.1,963v91.8l4.31,13.12v140A144.57,144.57,0,0,1,1044.06,1238.83ZM1230.77,904.2l2.61,1-2.61-1c-.66-.25-1.34-.43-2-.65C1229.43,903.77,1230.11,904,1230.77,904.2Z" transform="translate(-294.29 -228.78)"/><path class="cls-3" d="M918.84,989.26H901.13a9.11,9.11,0,0,0-9.11,9.11v30.95h-7.81v10H872.07l-6.33-5.88v-26.07l-8.67-36.78-6.93-7a219.92,219.92,0,0,0-90.4,0l-6.94,7-8.66,36.78v26.07l-6.33,5.88H725.67v-10h-7.81V998.37a9.11,9.11,0,0,0-9.11-9.11H691a9.11,9.11,0,0,0-9.11,9.11v91.83a9.11,9.11,0,0,0,9.11,9.11h17.71a9.11,9.11,0,0,0,9.11-9.11v-31h7.81V1055h18.47v82.87l-7,8.48a34.88,34.88,0,0,0-8,22.23v88.87a35.32,35.32,0,0,0,.62,6.57L743,1333H725.67v-10h-7.81v-31a9.11,9.11,0,0,0-9.11-9.11H691a9.11,9.11,0,0,0-9.11,9.11v91.83A9.1,9.1,0,0,0,691,1393h17.71a9.1,9.1,0,0,0,9.11-9.1v-31h7.81v-4.23H746l.62,3.23a23.69,23.69,0,0,1,.44,4.61V1408h10.4v-51.47a35.32,35.32,0,0,0-.62-6.57l-.25-1.27h4.33c1.39,6.76,2.84,13.5,4.4,20.22h0a44.81,44.81,0,0,0,33.14,33.4l6.49,1.57,6.49-1.57a44.8,44.8,0,0,0,33.13-33.4h0c1.57-6.72,3-13.46,4.41-20.22h4.32l-.24,1.27a35.32,35.32,0,0,0-.62,6.57V1408h10.39v-51.47a24.5,24.5,0,0,1,.44-4.61l.62-3.23h20.33v4.23H892v31a9.1,9.1,0,0,0,9.11,9.1h17.71a9.1,9.1,0,0,0,9.11-9.1v-91.83a9.11,9.11,0,0,0-9.11-9.11H901.13a9.11,9.11,0,0,0-9.11,9.11v31h-7.81v10H866.89l13.24-69a34.5,34.5,0,0,0,.63-6.57v-88.87a34.94,34.94,0,0,0-8-22.23l-7-8.48V1055h18.47v4.23H892v31a9.11,9.11,0,0,0,9.11,9.11h17.71a9.11,9.11,0,0,0,9.11-9.11V998.37A9.11,9.11,0,0,0,918.84,989.26Zm-193.17,54.31h13.8l4.67-4.33v4.15l-5,1.67H725.67Zm0,7.21v-1.48h14.11l4.36-1.45v2.93Zm18.47,103.58v4.58l-4.14,5A24.54,24.54,0,0,1,744.14,1154.36Zm-18.47,182.91H743.8l.29,1.49H725.67Zm0,7.21V1343H744.9l.28,1.48Zm14.29-82.4a24.68,24.68,0,0,1-.44-4.62v-67.81a24.47,24.47,0,0,1,4.62-14.16v9.11q0,23.26,1.33,46.48a813.92,813.92,0,0,0,11.26,95.82l-3.91,2.2Zm13.86,72.24,3.9-2.19c.27,1.5.56,3,.84,4.5l-4.14.83Zm1.95,10.16-.52-2.72,4.12-.83c.23,1.18.43,2.37.67,3.55Zm98.34,0h-4.27c.23-1.18.43-2.37.66-3.55l4.13.83Zm1.34-7-4.14-.83c.29-1.5.57-3,.85-4.5l3.9,2.19Zm28.76,7H864.69L865,1343h19.23Zm0-7.21v1.49H865.79l.29-1.49Zm-13.85-79.81a24.68,24.68,0,0,1-.44,4.62l-12.86,67-3.92-2.2a812.66,812.66,0,0,0,12.6-142.3v-9.11a24.47,24.47,0,0,1,4.62,14.16Zm-.48-93.52-4.14-5v-4.58A24.68,24.68,0,0,1,869.88,1163.94Zm14.33-113.16H865.74v-2.93l4.36,1.45h14.11Zm0-5.72H870.78l-5-1.67v-4.15l4.66,4.33h13.81Z" transform="translate(-294.29 -228.78)"/><path class="cls-3" d="M331,1377.44h0l10.93,8.79c-5.1,2.48-10.23,5.15-15.38,8.07l6.7,8.12s10.79-.57,27.24-1.26L369,1408H540.07l8.52-6.86c16.46.69,27.24,1.26,27.24,1.26l6.71-8.12c-5.16-2.92-10.29-5.59-15.38-8.07l10.93-8.79,10.14-36.86-5.33-101.16-9.56-61.16-2-71.23,6.79,5,1.9-3.13-1.44-10.83-7.72-7.35-.34-12.07,2.85-20.39h0l-7.61-103.9L561.55,942l-8.17-24.1h0l-28.08-18.6-6.77,2.91-14.9-7.52L489,887.33h-69l-29.52,14.9-6.78-2.91-28.07,18.6-12.36,36.46-7.6,103.9,2.85,20.39-.35,12.07-7.72,7.35-1.44,10.83,1.91,3.13,6.79-5-2,71.23-9.56,61.16-5.33,101.16h0l2.79,10.14Z" transform="translate(-294.29 -228.78)"/></g><polygon class="cls-4" points="1166.92 1054.86 1188.69 1040.4 1185.87 1036.19 1165.08 1050.13 1144.12 1056.57 1145.61 1061.42 1166.92 1054.86"/><polygon class="cls-4" points="1193.39 1063.41 1146.97 1063.41 1146.97 1065.62 1146.6 1065.48 1143.12 1074.99 1187.65 1091.31 1191.14 1081.8 1154.78 1068.48 1193.39 1068.48 1193.39 1063.41"/><polygon class="cls-4" points="1191.28 766.53 1146.97 779.19 1146.97 785.1 1187.26 785.1 1191.28 766.53"/><polygon class="cls-4" points="1146.97 771.27 1146.97 774.44 1195.75 749.82 1195.75 746.66 1146.97 771.27"/><polygon class="cls-4" points="1168.87 762.82 1177.24 773.66 1181.06 772.46 1172.2 760.98 1168.87 762.82"/><rect class="cls-5" x="1167.23" y="701.1" width="69.22" height="23.64"/><polygon class="cls-6" points="1167.23 730.23 1160.9 730.23 1165.14 696.88 1171.47 696.88 1167.23 730.23"/><polygon class="cls-6" points="1236.46 684.85 1209.67 684.85 1178.21 805.78 1183.9 805.78 1207.33 766.53 1236.46 766.53 1236.46 684.85"/><polygon class="cls-6" points="1183.9 805.78 1183.9 833.01 1178.21 805.78 1183.9 805.78"/><polygon class="cls-7" points="1183.9 805.78 1183.9 1067.63 1236.46 1067.63 1236.46 766.53 1207.33 766.53 1183.9 805.78"/><rect class="cls-8" x="1097.64" y="735.96" width="44.4" height="84.63" rx="9.11"/><rect class="cls-9" x="1142.04" y="751.42" width="4.93" height="53.7"/><rect class="cls-8" x="1082.44" y="1021.94" width="59.6" height="84.63" rx="9.11"/><rect class="cls-9" x="1142.04" y="1037.4" width="4.93" height="53.7"/><polygon class="cls-8" points="1236.46 935.94 1210.18 946.07 1198.47 981.1 1198.47 1016.56 1236.46 1016.56 1236.46 935.94"/><polygon class="cls-10" points="1236.46 976.25 1206.67 987.73 1193.4 1027.44 1193.4 1067.63 1236.46 1067.63 1236.46 976.25"/><polygon class="cls-8" points="1183.9 1058.56 1172.19 1063.41 1172.19 1103.83 1182.48 1114.12 1236.46 1114.12 1236.46 1067.63 1183.9 1067.63 1183.9 1058.56"/><polygon class="cls-5" points="1190.87 1067.63 1190.87 1095.28 1204.32 1122.7 1204.32 1159.54 1223.79 1159.54 1223.79 1109.21 1236.46 1097.81 1236.46 1067.63 1190.87 1067.63"/><polygon class="cls-11" points="1236.46 1043.15 1193.4 1045.68 1166.4 1058.56 1166.4 1095.07 1236.46 1095.07 1236.46 1043.15"/><rect class="cls-10" x="1162.06" y="1053.65" width="4.34" height="41.42"/><rect class="cls-10" x="1166.4" y="1081.35" width="70.05" height="13.72"/><polygon class="cls-4" points="1305.99 1054.86 1284.22 1040.4 1287.04 1036.19 1307.84 1050.13 1328.8 1056.57 1327.31 1061.42 1305.99 1054.86"/><polygon class="cls-4" points="1279.52 1063.41 1325.94 1063.41 1325.94 1065.62 1326.31 1065.48 1329.8 1074.99 1285.26 1091.31 1281.78 1081.8 1318.13 1068.48 1279.52 1068.48 1279.52 1063.41"/><polygon class="cls-4" points="1281.63 766.53 1325.94 779.19 1325.94 785.1 1285.65 785.1 1281.63 766.53"/><polygon class="cls-4" points="1325.94 771.27 1325.94 774.44 1277.16 749.82 1277.16 746.66 1325.94 771.27"/><polygon class="cls-4" points="1304.04 762.82 1295.68 773.66 1291.86 772.46 1300.71 760.98 1304.04 762.82"/><rect class="cls-5" x="1530.74" y="929.88" width="69.22" height="23.64" transform="translate(2836.42 1654.62) rotate(180)"/><polygon class="cls-11" points="1305.68 730.23 1312.01 730.23 1307.78 696.88 1301.44 696.88 1305.68 730.23"/><polygon class="cls-11" points="1236.46 684.85 1263.24 684.85 1294.71 805.78 1289.01 805.78 1265.58 766.53 1236.46 766.53 1236.46 684.85"/><polygon class="cls-11" points="1289.01 805.78 1289.01 833.01 1294.71 805.78 1289.01 805.78"/><polygon class="cls-7" points="1289.01 805.78 1289.01 1067.63 1236.46 1067.63 1236.46 766.53 1265.58 766.53 1289.01 805.78"/><rect class="cls-8" x="1330.88" y="735.96" width="44.4" height="84.63" rx="9.11"/><rect class="cls-9" x="1620.23" y="980.2" width="4.93" height="53.7" transform="translate(2951.1 1785.32) rotate(180)"/><rect class="cls-8" x="1330.88" y="1021.94" width="59.6" height="84.63" rx="9.11"/><rect class="cls-9" x="1620.23" y="1266.18" width="4.93" height="53.7" transform="translate(2951.1 2357.28) rotate(180)"/><polygon class="cls-8" points="1236.46 935.94 1262.73 946.07 1274.45 981.1 1274.45 1016.56 1236.46 1016.56 1236.46 935.94"/><polygon class="cls-10" points="1236.46 976.25 1266.24 987.73 1279.52 1027.44 1279.52 1067.63 1236.46 1067.63 1236.46 976.25"/><polygon class="cls-8" points="1289.01 1058.56 1300.72 1063.41 1300.72 1103.83 1290.43 1114.12 1236.46 1114.12 1236.46 1067.63 1289.01 1067.63 1289.01 1058.56"/><polygon class="cls-5" points="1282.04 1067.63 1282.04 1095.28 1268.59 1122.7 1268.59 1159.54 1249.12 1159.54 1249.12 1109.21 1236.46 1097.81 1236.46 1067.63 1282.04 1067.63"/><polygon class="cls-12" points="1236.46 1097.81 1223.79 1109.21 1223.79 1159.54 1236.46 1161.44 1249.12 1159.54 1249.12 1109.21 1236.46 1097.81"/><polygon class="cls-11" points="1236.46 1043.15 1279.52 1045.68 1306.51 1058.56 1306.51 1095.07 1236.46 1095.07 1236.46 1043.15"/><rect class="cls-10" x="1600.8" y="1282.43" width="4.34" height="41.42" transform="translate(2911.65 2377.5) rotate(180)"/><rect class="cls-10" x="1530.74" y="1310.13" width="70.05" height="13.72" transform="translate(2837.25 2405.2) rotate(180)"/><polygon class="cls-6" points="1183.9 805.78 1198.47 981.1 1210.18 946.07 1187.05 805.78 1207.33 766.53 1183.9 805.78"/><polygon class="cls-11" points="1289.01 805.78 1274.45 981.1 1262.73 946.07 1285.87 805.78 1265.58 766.53 1289.01 805.78"/><polygon class="cls-13" points="1265.58 766.53 1212.61 770.32 1193.4 805.78 1206.27 922.37 1187.05 805.78 1207.33 766.53 1265.58 766.53"/><polygon class="cls-13" points="1262.73 946.07 1236.46 935.94 1210.18 946.07 1198.47 981.1 1198.47 984.58 1210.18 952.99 1236.46 943.85 1262.73 952.99 1274.45 984.58 1274.45 981.1 1262.73 946.07"/><path class="cls-14" d="M539.8,557.35a67.66,67.66,0,0,1-8.29-35.11l8.33-196.09a32.26,32.26,0,0,0-1.89-13l-8.88-24.44A32.31,32.31,0,0,0,507,268.49h0a306.73,306.73,0,0,0-158.07,0h0a32.33,32.33,0,0,0-22.05,20.19L318,313.12a32.26,32.26,0,0,0-1.89,13l8.33,196.09a67.66,67.66,0,0,1-8.29,35.11,66.54,66.54,0,0,0-8,35.13l5.69,94.37a49.9,49.9,0,0,0,1.48,10.25,51.32,51.32,0,0,0,45.51,38.41l133.11.08a53.11,53.11,0,0,0,23.43-7.27,51.31,51.31,0,0,0,24.63-41.24l5.7-94.6A66.54,66.54,0,0,0,539.8,557.35Z" transform="translate(-294.29 -228.78)"/><path class="cls-15" d="M515.5,475l-20.26,27.67-2.65-3.7,21.32-42.21c-1-7.77-2.44-13.91-4.37-17.63-6.18-11.92-21.37-19.79-37-24.91a143.08,143.08,0,0,0-89.13,0c-15.62,5.12-30.81,13-37,24.91-1.93,3.72-3.35,9.86-4.37,17.63L363.38,499l-2.65,3.7L340.47,475c-2.2,41.9,1.87,105.27,4.31,131.77a48.19,48.19,0,0,0,24.79,38.14c12.46,6.71,31.08,12.4,58.42,12.4s45.95-5.69,58.42-12.4a48.21,48.21,0,0,0,24.78-38.14C513.63,580.26,517.7,516.89,515.5,475Z" transform="translate(-294.29 -228.78)"/><path class="cls-16" d="M519.11,312.36a60.13,60.13,0,0,0-44.95-38.91,215,215,0,0,0-92.35,0,61.71,61.71,0,0,0-48.7,63.72L340.47,475h0c.87-16.43,2.69-29.57,6-35.87,14.83-28.6,81.56-33.89,81.56-33.89s66.72,5.29,81.55,33.89c3.27,6.3,5.09,19.44,6,35.87h0l7.36-137.82A62.21,62.21,0,0,0,519.11,312.36Z" transform="translate(-294.29 -228.78)"/><path class="cls-16" d="M486.41,644.9c-12.47,6.71-31.09,12.4-58.42,12.4s-46-5.69-58.42-12.4a48.19,48.19,0,0,1-24.79-38.13l7,87.82a24.89,24.89,0,0,0,23,22.86H481.19a24.92,24.92,0,0,0,23-22.86l7-87.82A48.2,48.2,0,0,1,486.41,644.9Z" transform="translate(-294.29 -228.78)"/><path class="cls-16" d="M495.82,491c-5.14-9.91-17.77-16.45-30.76-20.72a119.25,119.25,0,0,0-74.15,0c-13,4.27-25.62,10.81-30.76,20.72-9.65,18.61-4.2,74.19-1.37,104.88a40.08,40.08,0,0,0,20.61,31.72c10.37,5.59,25.86,10.32,48.6,10.32s38.22-4.73,48.59-10.32a40.08,40.08,0,0,0,20.61-31.72C500,565.15,505.47,509.57,495.82,491Z" transform="translate(-294.29 -228.78)"/><polygon class="cls-8" points="56.23 79.95 74.01 76.73 74.47 70.41 56.69 73.63 56.23 79.95"/><polygon class="cls-8" points="57.04 90.25 74.82 87.03 75.28 80.7 57.51 83.92 57.04 90.25"/><polygon class="cls-8" points="57.85 100.55 75.63 97.33 76.1 91 58.32 94.22 57.85 100.55"/><polygon class="cls-8" points="58.67 110.85 76.44 107.63 76.91 101.3 59.13 104.52 58.67 110.85"/><polygon class="cls-8" points="59.48 121.14 77.26 117.92 77.72 111.6 59.95 114.82 59.48 121.14"/><polygon class="cls-8" points="211.17 79.95 193.39 76.73 192.93 70.41 210.71 73.63 211.17 79.95"/><polygon class="cls-8" points="210.36 90.25 192.58 87.03 192.12 80.7 209.9 83.92 210.36 90.25"/><polygon class="cls-8" points="209.55 100.55 191.77 97.33 191.3 91 209.08 94.22 209.55 100.55"/><polygon class="cls-8" points="208.73 110.85 190.96 107.63 190.49 101.3 208.27 104.52 208.73 110.85"/><polygon class="cls-8" points="207.92 121.14 190.14 117.92 189.68 111.6 207.46 114.82 207.92 121.14"/><path class="cls-17" d="M485.27,419.15l2.38-38.48A17.15,17.15,0,0,0,486,372.3l-8.64-18.13a17,17,0,0,1-1.61-8.47l4.76-70.54h0c-2.1-.66-4.22-1.24-6.37-1.71a215,215,0,0,0-92.35,0c-2.16.47-4.3,1.06-6.41,1.72,0,.13.06.22.06.23l4.74,70.3a17,17,0,0,1-1.61,8.47L370,372.3a17.15,17.15,0,0,0-1.63,8.37l2.38,38.48a120.57,120.57,0,0,1,12.82-5,143.06,143.06,0,0,1,88.94,0A121.23,121.23,0,0,1,485.27,419.15Z" transform="translate(-294.29 -228.78)"/><path class="cls-14" d="M465.06,470.24a119.25,119.25,0,0,0-74.15,0c-13,4.27-25.62,10.81-30.76,20.72-9.65,18.61-4.2,74.19-1.37,104.88a40.08,40.08,0,0,0,20.61,31.72c6.86,3.7,16,7,28,8.81-.49-.74-29.78-45.48,23.83-79.09,54.06-33.89,64.6-66.32,64.6-66.32C490.68,481.05,478.05,474.51,465.06,470.24Z" transform="translate(-294.29 -228.78)"/><path class="cls-18" d="M1251.82,341,1231.57,306h0a269.88,269.88,0,0,0-169.07,0h0L1042.25,341,1029,438.26l17.61,26.46h200.77L1265,438.26Z" transform="translate(-294.29 -228.78)"/><polygon class="cls-19" points="953.13 345.13 953.13 235.94 852.75 235.94 752.36 235.94 752.36 345.13 734.75 403.45 734.75 449.06 772.65 510.56 852.75 510.56 932.84 510.56 970.75 449.06 970.75 403.45 953.13 345.13"/><polygon class="cls-20" points="953.13 345.13 953.13 271.84 947.6 345.13 957.66 402.47 952.63 443.77 910 510.56 932.84 510.56 970.75 449.06 970.75 403.45 953.13 345.13"/><polygon class="cls-19" points="955.01 138.33 948.93 141.55 949.19 193.82 942.14 223.79 946.43 235.94 953.13 235.94 970.75 209.49 957.54 112.23 937.28 77.19 935.51 83.62 952.15 112.23 955.01 138.33"/><polygon class="cls-21" points="752.36 345.13 752.37 271.84 757.89 345.13 747.83 402.47 752.86 443.77 795.49 510.56 772.65 510.56 734.75 449.06 734.75 403.45 752.36 345.13"/><path class="cls-15" d="M1236.43,452.57h0a229,229,0,0,0-178.79,0h0l-4.29,12.15,13.59,195.95,25.74,26.46h0a235.68,235.68,0,0,0,108.7,0h0l25.75-26.46,13.59-195.95Z" transform="translate(-294.29 -228.78)"/><polygon class="cls-18" points="780.9 296.54 763.36 223.79 759.07 235.94 777.3 306.74 780.9 296.54"/><polygon class="cls-18" points="782.93 368.42 772.65 431.89 798.4 458.35 804.55 390.64 782.93 368.42"/><polygon class="cls-22" points="769.99 83.62 753.35 112.23 750.49 138.33 756.56 141.55 784.81 118.66 788.03 110.08 780.62 79.6 769.99 83.62"/><polygon class="cls-19" points="924.59 296.54 942.14 223.79 946.43 235.94 928.2 306.74 924.59 296.54"/><polygon class="cls-19" points="922.56 368.42 932.84 431.89 907.1 458.35 900.95 390.64 922.56 368.42"/><polygon class="cls-22" points="935.51 83.62 952.15 112.23 955.01 138.33 948.93 141.55 920.69 118.66 917.47 110.08 924.88 79.6 935.51 83.62"/><polygon class="cls-12" points="975 481.69 935.51 469.94 852.75 469.94 852.75 469.95 852.75 469.94 769.99 469.94 730.5 481.69 714.66 493.74 716.03 505.66 718.13 523.76 733.95 511.61 769.99 500.7 843.27 500.7 852.75 500.7 935.51 500.7 971.55 511.61 987.37 523.76 989.46 505.66 990.84 493.74 975 481.69"/><polygon class="cls-9" points="971.55 511.61 974.05 489.98 975 481.69 990.84 493.74 989.46 505.66 987.37 523.76 971.55 511.61"/><polygon class="cls-4" points="935.51 469.94 935.51 500.7 971.55 511.61 975 481.69 935.51 469.94"/><path class="cls-18" d="M1218.88,525.31h0a184,184,0,0,0-143.69,0h0l-3.6,10.21,5.63,61.68,21.62,22.22h0a209,209,0,0,0,96.39,0h0l21.62-22.22,5.63-61.68Z" transform="translate(-294.29 -228.78)"/><polygon class="cls-9" points="733.95 511.61 731.45 489.98 730.5 481.69 714.66 493.74 716.03 505.66 718.13 523.76 733.95 511.61"/><polygon class="cls-4" points="769.99 469.94 769.99 500.7 733.95 511.61 730.5 481.69 769.99 469.94"/><polygon class="cls-21" points="750.49 138.33 756.56 141.55 756.31 193.82 763.36 223.79 759.07 235.94 752.36 235.94 734.75 209.49 747.96 112.23 768.21 77.19 769.99 83.62 753.35 112.23 750.49 138.33"/><polygon class="cls-18" points="798.4 458.35 798.4 469.94 769.99 469.94 752.86 443.77 747.83 402.47 757.89 345.13 752.36 235.94 759.07 235.94 772.65 431.89 798.4 458.35"/><polygon class="cls-23" points="780.62 79.6 771.84 85.17 759.07 113.5 756.56 141.55 750.49 138.33 753.35 112.23 769.99 83.62 780.62 79.6"/><polygon class="cls-24" points="924.88 79.6 933.66 85.17 946.43 113.5 948.93 141.55 955.01 138.33 952.15 112.23 935.51 83.62 924.88 79.6"/><polygon class="cls-8" points="765.12 153.26 782.9 150.04 783.36 143.72 765.59 146.94 765.12 153.26"/><polygon class="cls-8" points="765.93 163.56 783.71 160.34 784.18 154.01 766.4 157.24 765.93 163.56"/><polygon class="cls-8" points="766.75 173.86 784.53 170.64 784.99 164.31 767.21 167.53 766.75 173.86"/><polygon class="cls-8" points="767.56 184.16 785.34 180.94 785.8 174.61 768.03 177.83 767.56 184.16"/><polygon class="cls-8" points="768.37 194.46 786.15 191.23 786.62 184.91 768.84 188.13 768.37 194.46"/><polygon class="cls-8" points="940.38 153.26 922.6 150.04 922.13 143.72 939.91 146.94 940.38 153.26"/><polygon class="cls-8" points="939.56 163.56 921.78 160.34 921.32 154.01 939.1 157.24 939.56 163.56"/><polygon class="cls-8" points="938.75 173.86 920.97 170.64 920.51 164.31 938.29 167.53 938.75 173.86"/><polygon class="cls-8" points="937.94 184.16 920.16 180.94 919.7 174.61 937.47 177.83 937.94 184.16"/><polygon class="cls-8" points="937.12 194.46 919.35 191.23 918.88 184.91 936.66 188.13 937.12 194.46"/><path class="cls-21" d="M1218.88,525.31h0a184,184,0,0,0-143.69,0l-3.6,10.21,5.63,61.68,21.62,22.22h0c5.81,1.38,11.68,2.41,17.56,3.29-1.06-2-22.75-43.12,27.57-54.83C1195.51,555.89,1218.88,525.31,1218.88,525.31Z" transform="translate(-294.29 -228.78)"/><polygon class="cls-25" points="1348.13 48.02 1309.08 16.95 1236.46 16.95 1163.84 16.95 1124.79 48.02 1110.44 88.89 1110.44 178.71 1140.72 184.29 1236.46 184.29 1332.19 184.29 1362.47 178.71 1362.47 88.89 1348.13 48.02"/><polygon class="cls-26" points="1309.08 16.95 1236.46 0 1163.84 16.95 1153.48 67.55 1153.48 184.29 1236.46 184.29 1319.44 184.29 1319.44 67.55 1309.08 16.95"/><path class="cls-27" d="M1662.18,610.42c-2.35-18-11.81-35.56-19.73-51.92L1648,424.23l8.76-16.74-30.28,5.58H1435l-30.28-5.58,8.77,16.74L1419,558.5c-7.91,16.36-17.38,33.89-19.72,51.92,0,0-7,92.56,3.72,121.31a51.65,51.65,0,0,0,18.4,23.95c8.74,6.23,23.44,5.33,34.16,5.33h150.3c10.73,0,25.43.9,34.16-5.33a51.58,51.58,0,0,0,18.4-23.95C1669.21,703,1662.18,610.42,1662.18,610.42Z" transform="translate(-294.29 -228.78)"/><path class="cls-28" d="M1626.47,413.07l-24.3-43.83a432.93,432.93,0,0,0-142.85,0L1435,413.07a551.54,551.54,0,0,0,.76,97.95l12,123.58h166l12-123.58A551.54,551.54,0,0,0,1626.47,413.07Z" transform="translate(-294.29 -228.78)"/><polygon class="cls-22" points="1124.79 48.02 1110.44 88.89 1153.48 67.55 1163.84 16.95 1124.79 48.02"/><path class="cls-29" d="M1626.47,413.07l-3.28-5.92-30.14,64.92a16.48,16.48,0,0,1-14.94,9.53h-94.74a16.46,16.46,0,0,1-14.93-9.53l-30.15-64.92-3.28,5.92,17.07,44.38a144.17,144.17,0,0,1,8.59,68.76L1447.76,634.6h166l-12.91-108.39a144,144,0,0,1,8.6-68.76Z" transform="translate(-294.29 -228.78)"/><polygon class="cls-26" points="1236.46 405.82 1153.48 405.82 1162.29 505.94 1236.46 505.94 1310.62 505.94 1319.44 405.82 1236.46 405.82"/><polygon class="cls-28" points="1236.46 405.82 1169.81 405.82 1188.59 484.82 1236.46 495.58 1284.32 484.82 1303.1 405.82 1236.46 405.82"/><polygon class="cls-22" points="1348.13 48.02 1362.47 88.89 1319.44 67.55 1309.08 16.95 1348.13 48.02"/><path class="cls-25" d="M1656.75,407.49l-30.28,5.58a551.54,551.54,0,0,1-.76,97.95l-12,123.58-8.82,100.12,16.79-49.41,20.76-126.81L1648,424.23Z" transform="translate(-294.29 -228.78)"/><path class="cls-26" d="M1435.77,511a551.54,551.54,0,0,1-.76-97.95l-30.28-5.58,8.76,16.74L1419,558.5l20.76,126.81,16.79,49.41-8.82-100.12Z" transform="translate(-294.29 -228.78)"/><rect class="cls-7" x="1138.29" y="516.24" width="18.38" height="8.96" rx="4.48"/><rect class="cls-7" x="1160.62" y="516.24" width="18.38" height="8.96" rx="4.48"/><rect class="cls-7" x="1293.91" y="516.24" width="18.38" height="8.96" rx="4.48"/><rect class="cls-7" x="1316.24" y="516.24" width="18.38" height="8.96" rx="4.48"/><polygon class="cls-30" points="1232.13 96.47 1227.48 41.05 1187.68 41.05 1170.62 108.21 1190.26 50.18 1222.83 50.18 1232.13 96.47"/><polygon class="cls-30" points="1240.79 96.47 1245.44 41.05 1285.23 41.05 1302.29 108.21 1282.65 50.18 1250.09 50.18 1240.79 96.47"/><polygon class="cls-25" points="1282.65 50.18 1289.2 69.53 1284.46 83.11 1279.55 86.37 1242.55 87.7 1250.09 50.18 1282.65 50.18"/><polygon class="cls-25" points="1190.26 50.18 1183.71 69.53 1188.45 83.11 1193.37 86.37 1230.36 87.7 1222.83 50.18 1190.26 50.18"/><polygon class="cls-8" points="1198.3 74.16 1201.87 76.54 1228.31 77.49 1222.83 50.18 1199.61 50.18 1194.84 64.27 1198.3 74.16"/><polygon class="cls-8" points="1274.61 74.16 1271.03 76.54 1244.59 77.49 1250.08 50.18 1273.29 50.18 1278.06 64.27 1274.61 74.16"/><path class="cls-25" d="M1626.47,413.07l-3.28-5.92-30.14,64.92a16.48,16.48,0,0,1-14.94,9.53h-94.74a16.46,16.46,0,0,1-14.93-9.53l-30.15-64.92-3.28,5.92,17.07,44.37a144.22,144.22,0,0,1,8.59,68.77l-3.09,26a73.68,73.68,0,1,0,146.33,0l-3.1-26a144.11,144.11,0,0,1,8.6-68.77Z" transform="translate(-294.29 -228.78)"/><polygon class="cls-31" points="1162.29 505.94 1162.29 413.39 1319.44 405.82 1153.48 405.82 1162.29 505.94"/><polygon class="cls-23" points="1163.84 16.95 1134.24 52.92 1130.54 78.92 1110.44 88.89 1124.79 48.02 1163.84 16.95"/><polygon class="cls-24" points="1309.08 16.95 1338.68 52.92 1342.37 78.92 1362.47 88.89 1348.13 48.02 1309.08 16.95"/><path class="cls-26" d="M1578.11,481.6h-94.74a16.46,16.46,0,0,1-14.93-9.53l-30.15-64.92-3.28,5.92,17.07,44.37a144.22,144.22,0,0,1,8.59,68.77l-3.09,26a73.63,73.63,0,0,0,36.59,72.65c-39.13-31.06-10.5-53.49,36.57-81.69s62.31-71.09,62.31-71.09A16.48,16.48,0,0,1,1578.11,481.6Z" transform="translate(-294.29 -228.78)"/><path class="cls-4" d="M1273.2,1190.07v-140l4.31-13.11V945.17l-19.2-29.2a45.24,45.24,0,0,0-21.93-17.51l-32.16-12.05a45.12,45.12,0,0,0-15.88-2.88h-82.61a45.17,45.17,0,0,0-15.89,2.88l-32.15,12.05A45.24,45.24,0,0,0,1035.76,916l-19.2,29.2V1037l4.31,13.11v140a144.54,144.54,0,0,1-3.35,31h0a144.64,144.64,0,0,0-3.36,31v68.71l16.29,51.15,36.89,18.36h159.39l36.89-18.36,16.29-51.15V1252a144.64,144.64,0,0,0-3.36-31h0A144.54,144.54,0,0,1,1273.2,1190.07Z" transform="translate(-294.29 -228.78)"/><path class="cls-28" d="M1254.51,1039.16l-3.9-2.5A192.34,192.34,0,0,0,1147,1006.37h0a192.33,192.33,0,0,0-103.57,30.29l-3.91,2.5-6.7,19.68v92.69a733.48,733.48,0,0,0,5.71,91.43l11.06,88.24,15.33,39.35,33.35,2.13a765.7,765.7,0,0,0,97.47,0l33.35-2.13,15.33-39.35,11.06-88.24a733.48,733.48,0,0,0,5.71-91.43v-92.69Z" transform="translate(-294.29 -228.78)"/><path class="cls-22" d="M1035.76,916l-6,9,5.93,1.41a34.09,34.09,0,0,0,34.15-11.52l13.26-16.15a17.86,17.86,0,0,0,4.08-11.36l-29.54,11.07A45.24,45.24,0,0,0,1035.76,916Z" transform="translate(-294.29 -228.78)"/><path class="cls-22" d="M1258.31,916a45.24,45.24,0,0,0-21.93-17.51l-29.54-11.07a17.86,17.86,0,0,0,4.08,11.36l13.26,16.15a34.09,34.09,0,0,0,34.15,11.52l5.93-1.41Z" transform="translate(-294.29 -228.78)"/><path class="cls-10" d="M1265.51,911.39l-3.72-7a45.29,45.29,0,0,0-25.67-21.77h0a253.82,253.82,0,0,0-80.32-13.05h-17.53A253.82,253.82,0,0,0,1058,882.59h0a45.34,45.34,0,0,0-25.68,21.77l-3.71,7a53.27,53.27,0,0,0-6.19,24.94h0L1035.76,916a45.32,45.32,0,0,1,21.93-17.52l32.15-12a45.17,45.17,0,0,1,15.89-2.88h82.61a45.33,45.33,0,0,1,15.88,2.87l32.16,12.05A45.32,45.32,0,0,1,1258.31,916l13.39,20.36A53.39,53.39,0,0,0,1265.51,911.39Z" transform="translate(-294.29 -228.78)"/><path class="cls-32" d="M1227.81,1144.93h0a49.19,49.19,0,0,1,4-17.56l29.44-68.53-6.71-19.68L1220,1133.6h0a365.68,365.68,0,0,0-146,0l-34.5-94.44-6.7,19.68,29.44,68.53a49.19,49.19,0,0,1,4,17.56h0a661.21,661.21,0,0,1-7.57,128.74l-9.07,57.53,15.33,39.35,15.42-46.54a15.94,15.94,0,0,1,13.6-10.86l12.85-1.24a418.86,418.86,0,0,1,80.43,0l12.85,1.24a16,16,0,0,1,13.6,10.86l15.42,46.54,15.33-39.35-9.07-57.53A661.26,661.26,0,0,1,1227.81,1144.93Z" transform="translate(-294.29 -228.78)"/><path class="cls-11" d="M1227.07,970a94.21,94.21,0,0,1-56.85-86.48H1147v122.84h0a192.34,192.34,0,0,1,103.58,30.29l3.9,2.5,6.71,19.68,12-8.75,4.31-13.11V991.8Z" transform="translate(-294.29 -228.78)"/><path class="cls-11" d="M1039.55,1039.16l3.91-2.5A192.33,192.33,0,0,1,1147,1006.37V883.53h-23.18A94.23,94.23,0,0,1,1067,970l-50.44,21.79V1037l4.31,13.11,12,8.75Z" transform="translate(-294.29 -228.78)"/><path class="cls-8" d="M1214.07,958.17l-7-24.4a5.18,5.18,0,0,0-5-3.76h-7.36a5.19,5.19,0,0,0-5.18,5.19v26.2a5.23,5.23,0,0,0,1.32,3.47l14.38,16a5.19,5.19,0,0,0,9-3.47V959.6A5.31,5.31,0,0,0,1214.07,958.17Z" transform="translate(-294.29 -228.78)"/><path class="cls-8" d="M1099.36,930H1092a5.21,5.21,0,0,0-5,3.76l-7,24.4a5.31,5.31,0,0,0-.2,1.43v17.83a5.19,5.19,0,0,0,9,3.47l14.38-16a5.23,5.23,0,0,0,1.32-3.47V935.2A5.19,5.19,0,0,0,1099.36,930Z" transform="translate(-294.29 -228.78)"/><path class="cls-7" d="M1099.36,930H1092a5.21,5.21,0,0,0-5,3.76l-7,24.4a5.31,5.31,0,0,0-.2,1.43V964a3.58,3.58,0,0,1,.2-1.16l7-19.69a5.16,5.16,0,0,1,5-3h7.35c2.87,0,5.19,1.87,5.19,4.19V935.2A5.19,5.19,0,0,0,1099.36,930Z" transform="translate(-294.29 -228.78)"/><path class="cls-7" d="M1194.7,930h7.36a5.18,5.18,0,0,1,5,3.76l7,24.4a5.31,5.31,0,0,1,.2,1.43V964a3.58,3.58,0,0,0-.2-1.16l-7-19.69a5.13,5.13,0,0,0-5-3h-7.36c-2.86,0-5.18,1.87-5.18,4.19V935.2A5.19,5.19,0,0,1,1194.7,930Z" transform="translate(-294.29 -228.78)"/><path class="cls-32" d="M1098.29,1372.68l-33.34-2.13,2.39,19.67h159.39l2.39-19.67-33.35,2.13A765.86,765.86,0,0,1,1098.29,1372.68Z" transform="translate(-294.29 -228.78)"/><path class="cls-4" d="M1139.73,1223.82c69.2-45.89,80.29-90.22,80.29-90.22a365.68,365.68,0,0,0-146,0l-34.5-94.44-6.7,19.68,29.44,68.53a49.19,49.19,0,0,1,4,17.56h0a661.21,661.21,0,0,1-7.57,128.74l-9.07,57.53,15.33,39.35,15.42-46.54a15.94,15.94,0,0,1,13.6-10.86l12.85-1.24S1070.54,1269.72,1139.73,1223.82Z" transform="translate(-294.29 -228.78)"/><path class="cls-10" d="M1180,1122.43l-.79-.59a16,16,0,0,0-9.48-3.11h-45.4a16,16,0,0,0-9.47,3.11l-.79.59a16,16,0,0,0-6.39,14.66l4.67,41a16,16,0,0,0,14.83,14.12l18.82,1.22a14.3,14.3,0,0,0,2.07,0l18.82-1.22a16,16,0,0,0,14.83-14.12l4.67-41A16,16,0,0,0,1180,1122.43Z" transform="translate(-294.29 -228.78)"/><path class="cls-11" d="M1233.76,1262.48q-4-28.68-5.53-57.62H1065.84q-1.5,28.91-5.53,57.62Z" transform="translate(-294.29 -228.78)"/><path class="cls-10" d="M1058.69,1273.67l-3.67,23.24h184l-3.66-23.24v-.07H1058.7A.2.2,0,0,0,1058.69,1273.67Z" transform="translate(-294.29 -228.78)"/><path class="cls-32" d="M1276.55,1221a144.54,144.54,0,0,1-3.35-31v-140h0l-12,8.75h0v92.69a733.48,733.48,0,0,1-5.71,91.43l-11.06,88.24-15.33,39.35-2.39,19.67,36.89-18.36,16.29-51.15V1252A144.64,144.64,0,0,0,1276.55,1221Z" transform="translate(-294.29 -228.78)"/><polygon class="cls-6" points="722.27 763.02 745.27 810.38 738.56 830.06 726.58 821.31 722.27 808.2 722.27 763.02"/><polygon class="cls-7" points="983.23 763.02 960.23 810.38 966.94 830.06 978.91 821.31 983.23 808.2 983.23 763.02"/><polygon class="cls-4" points="435.74 782.44 428.1 782.44 416.98 792.76 404.84 792.76 404.84 797 418.64 797 429.77 786.67 435.74 786.67 435.74 782.44"/><polygon class="cls-4" points="435.74 792.69 418.27 798.49 404.84 798.49 404.84 802.73 418.95 802.73 435.74 797.15 435.74 792.69"/><polygon class="cls-4" points="435.74 810.4 429.55 804.2 404.84 804.2 404.84 808.44 427.79 808.44 435.74 816.39 435.74 810.4"/><rect class="cls-9" x="397.03" y="782.75" width="7.81" height="29.92"/><polygon class="cls-4" points="456.04 1076.13 443.38 1076.13 424.96 1086.46 404.84 1086.46 404.84 1090.7 427.71 1090.7 446.14 1080.37 456.04 1080.37 456.04 1076.13"/><polygon class="cls-4" points="456.04 1086.39 427.09 1092.19 404.84 1092.19 404.84 1096.42 428.22 1096.42 456.04 1090.85 456.04 1086.39"/><polygon class="cls-4" points="456.04 1104.1 445.78 1097.9 404.84 1097.9 404.84 1102.14 442.87 1102.14 456.04 1110.09 456.04 1104.1"/><rect class="cls-9" x="397.03" y="1076.45" width="7.81" height="29.92"/><rect class="cls-8" x="361.1" y="742.69" width="35.93" height="110.04" rx="9.11"/><rect class="cls-8" x="361.1" y="1036.38" width="35.93" height="110.04" rx="9.11"/><polygon class="cls-4" points="532.48 782.44 540.12 782.44 551.24 792.76 563.38 792.76 563.38 797 549.58 797 538.46 786.67 532.48 786.67 532.48 782.44"/><polygon class="cls-4" points="532.48 792.69 549.96 798.49 563.38 798.49 563.38 802.73 549.27 802.73 532.48 797.15 532.48 792.69"/><polygon class="cls-4" points="532.48 810.4 538.67 804.2 563.38 804.2 563.38 808.44 540.43 808.44 532.48 816.39 532.48 810.4"/><rect class="cls-9" x="857.67" y="1011.53" width="7.81" height="29.92" transform="translate(1428.86 1824.19) rotate(180)"/><polygon class="cls-4" points="512.18 1076.13 524.84 1076.13 543.26 1086.46 563.38 1086.46 563.38 1090.7 540.51 1090.7 522.08 1080.37 512.18 1080.37 512.18 1076.13"/><polygon class="cls-4" points="512.18 1086.39 541.13 1092.19 563.38 1092.19 563.38 1096.42 540 1096.42 512.18 1090.85 512.18 1086.39"/><polygon class="cls-4" points="512.18 1104.1 522.45 1097.9 563.38 1097.9 563.38 1102.14 525.35 1102.14 512.18 1110.09 512.18 1104.1"/><rect class="cls-9" x="857.67" y="1305.22" width="7.81" height="29.92" transform="translate(1428.86 2411.59) rotate(180)"/><rect class="cls-8" x="571.19" y="742.69" width="35.93" height="110.04" rx="9.11"/><rect class="cls-8" x="571.19" y="1036.38" width="35.93" height="110.04" rx="9.11"/><path class="cls-32" d="M778.4,998.34H717.6V1166.8a812.88,812.88,0,0,0,21.17,184.33h0a44.79,44.79,0,0,0,33.13,33.4l6.5,1.57,6.49-1.57a44.79,44.79,0,0,0,33.13-33.4h0a812.88,812.88,0,0,0,21.17-184.33V998.34Z" transform="translate(-294.29 -228.78)"/><path class="cls-33" d="M830.5,1088.59h8.69v71.08H830.5c-7.48,0-13.55-8.29-13.55-18.52v-34C817,1096.88,823,1088.59,830.5,1088.59Z" transform="translate(-294.29 -228.78)"/><path class="cls-8" d="M843.38,1244.28a24.68,24.68,0,0,0,.44-4.62v-67.81a24.55,24.55,0,0,0-5.62-15.6L817,1130.56v-15.9l.2-.17,26.18,31.65a24.42,24.42,0,0,0-5.13-11L817,1109.51v-2.4a23.09,23.09,0,0,1,2.59-10.79l26.67,32.24a35,35,0,0,1,8,22.23v88.87a35.42,35.42,0,0,1-.62,6.58l-16.87,87.9a24.65,24.65,0,0,0-.44,4.61v51.47h-10.4v-51.47a34.5,34.5,0,0,1,.63-6.57Z" transform="translate(-294.29 -228.78)"/><path class="cls-4" d="M823.6,945.82h0a220,220,0,0,0-90.41,0h0l-6.93,7H830.53Z" transform="translate(-294.29 -228.78)"/><polygon class="cls-6" points="536.24 724.03 484.11 724.03 431.98 724.03 423.31 760.81 423.31 769.56 484.11 769.56 544.91 769.56 544.91 760.81 536.24 724.03"/><path class="cls-33" d="M726.29,1088.59H717.6v71.08h8.69c7.48,0,13.55-8.29,13.55-18.52v-34C739.84,1096.88,733.77,1088.59,726.29,1088.59Z" transform="translate(-294.29 -228.78)"/><path class="cls-4" d="M803.86,1027.62a16.22,16.22,0,0,0-11.46-10h-28a16.19,16.19,0,0,0-11.45,10,139,139,0,0,0-9.2,49.76v112.85l34.66-15.5,34.66,15.5V1077.38A139.19,139.19,0,0,0,803.86,1027.62Z" transform="translate(-294.29 -228.78)"/><path class="cls-8" d="M713.41,1244.28a24.67,24.67,0,0,1-.43-4.62v-67.81a24.54,24.54,0,0,1,5.61-15.6l21.25-25.69v-15.9l-.2-.17-26.18,31.65a24.53,24.53,0,0,1,5.13-11l21.25-25.68v-2.4a23.09,23.09,0,0,0-2.59-10.79l-26.67,32.24a35,35,0,0,0-8,22.23v88.87a35.42,35.42,0,0,0,.62,6.58l16.87,87.9a24.65,24.65,0,0,1,.44,4.61v51.47h10.4v-51.47a34.5,34.5,0,0,0-.63-6.57Z" transform="translate(-294.29 -228.78)"/><path class="cls-8" d="M795.87,1174.73H760.93A17.29,17.29,0,0,0,743.64,1192v70.6a34.76,34.76,0,0,0,69.51,0V1192A17.29,17.29,0,0,0,795.87,1174.73Z" transform="translate(-294.29 -228.78)"/><path class="cls-22" d="M795.87,1174.73H760.93A17.29,17.29,0,0,0,743.64,1192v28.37a17.29,17.29,0,0,1,17.29-17.28h34.94a17.28,17.28,0,0,1,17.28,17.28V1192A17.29,17.29,0,0,0,795.87,1174.73Z" transform="translate(-294.29 -228.78)"/><path class="cls-4" d="M778.4,1297.37a34.75,34.75,0,0,1-34.76-34.75V1281c0,19.19,15.56,59.3,34.76,59.3s34.75-40.11,34.75-59.3v-18.41A34.75,34.75,0,0,1,778.4,1297.37Z" transform="translate(-294.29 -228.78)"/><polygon class="cls-34" points="438.91 717.04 436.27 724.03 431.15 760.62 431.15 769.56 423.31 769.56 423.31 760.81 431.98 724.03 438.91 717.04"/><rect class="cls-34" x="423.31" y="769.56" width="7.8" height="90.25"/><path class="cls-34" d="M746.57,1351.13A812.88,812.88,0,0,1,725.4,1166.8v-7.13h-7.8v7.13a812.88,812.88,0,0,0,21.17,184.33,44.79,44.79,0,0,0,33.13,33.4l6.5,1.57C761.92,1382.13,750.41,1367.64,746.57,1351.13Z" transform="translate(-294.29 -228.78)"/><path class="cls-34" d="M751.15,1177.78v-100.4a139.19,139.19,0,0,1,9.2-49.76,16.2,16.2,0,0,1,11.45-10h-7.41a16.19,16.19,0,0,0-11.45,10,139,139,0,0,0-9.2,49.76v112.85l.09,0A17.21,17.21,0,0,1,751.15,1177.78Z" transform="translate(-294.29 -228.78)"/><rect class="cls-8" x="471.4" y="836.17" width="3.88" height="80.49"/><rect class="cls-8" x="482.17" y="836.17" width="3.88" height="80.49"/><rect class="cls-8" x="492.94" y="836.17" width="3.88" height="80.49"/><polygon class="cls-20" points="262.07 992.85 252.51 931.68 249.66 832.09 252.51 811.71 244.91 707.8 232.55 671.34 204.48 652.74 197.7 655.66 168.18 640.76 133.7 640.76 99.22 640.76 69.7 655.66 62.92 652.74 34.85 671.34 22.5 707.8 14.89 811.71 17.74 832.09 14.89 931.68 5.33 992.85 0 1094.01 10.14 1130.86 48.16 1161.44 133.7 1161.44 219.24 1161.44 257.26 1130.86 267.4 1094.01 262.07 992.85"/><polygon class="cls-28" points="61.25 1043.35 51.96 907.9 30.84 858.29 39.29 975.26 51.33 1024.66 61.25 1043.35"/><polygon class="cls-35" points="40.98 821.74 9.67 851.52 8.24 862.34 10.14 865.48 34.53 847.44 34.53 835.68 40.98 829.41 40.98 821.74"/><polygon class="cls-36" points="39.29 975.26 5.33 992.85 0 1094.01 51.33 1024.66 39.29 975.26"/><polygon class="cls-8" points="34.58 971.75 31.49 929 18.8 935.61 11.26 983.83 34.58 971.75"/><polygon class="cls-36" points="31.49 929 18.8 935.61 11.26 983.83 15.24 981.77 21.88 939.26 31.86 934.07 31.49 929"/><polygon class="cls-37" points="61.25 1043.35 30.84 1098.24 30.84 1123.34 48.16 1161.44 10.14 1130.86 0 1094.01 51.33 1024.66 61.25 1043.35"/><polygon class="cls-19" points="69.7 655.66 66.85 797.13 74.22 795.05 70.97 656.76 99.22 640.76 69.7 655.66"/><polygon class="cls-36" points="22.5 707.8 14.89 811.71 17.74 832.09 17.4 844.17 40.98 821.74 27.46 800.26 25.66 708.25 34.85 671.34 22.5 707.8"/><polygon class="cls-22" points="32.18 682.07 25.66 708.25 36.54 689.94 64.61 667.22 64.61 660.58 32.18 682.07"/><path class="cls-28" d="M494.84,1025.9a246.83,246.83,0,0,0-133.7,0l-25.88,24.62v29.76l21.12,49.6,9.3,135.46,15.94,22,46.37,5.23,46.36-5.23,15.94-22,9.3-135.46,21.12-49.6v-29.76Z" transform="translate(-294.29 -228.78)"/><polygon class="cls-28" points="206.15 1043.35 215.44 907.9 236.56 858.29 228.11 975.26 216.07 1024.66 206.15 1043.35"/><polygon class="cls-36" points="226.42 821.74 257.73 851.52 259.16 862.34 257.26 865.48 232.87 847.44 232.87 835.68 226.42 829.41 226.42 821.74"/><polygon class="cls-35" points="228.11 975.26 262.07 992.85 267.4 1094.01 216.07 1024.66 228.11 975.26"/><polygon class="cls-8" points="232.82 971.75 235.91 929 248.6 935.61 256.14 983.83 232.82 971.75"/><polygon class="cls-35" points="235.91 929 248.6 935.61 256.14 983.83 252.16 981.77 245.52 939.26 235.54 934.07 235.91 929"/><polygon class="cls-37" points="206.15 1043.35 236.56 1098.24 236.56 1123.34 219.24 1161.44 257.26 1130.86 267.4 1094.01 216.07 1024.66 206.15 1043.35"/><polygon class="cls-35" points="180.06 1058.51 133.7 1063.74 87.34 1058.51 71.39 1036.56 96.63 1161.44 102.65 1161.44 97.53 1122.91 116.1 1075.7 133.7 1074.07 151.3 1075.7 169.87 1122.91 164.75 1161.44 170.77 1161.44 196.01 1036.56 180.06 1058.51"/><polygon class="cls-35" points="197.7 655.66 200.55 797.13 193.18 795.05 196.43 656.76 168.18 640.76 197.7 655.66"/><polygon class="cls-35" points="244.91 707.8 252.51 811.71 249.66 832.09 250 844.17 226.42 821.74 239.94 800.26 241.74 708.25 232.55 671.34 244.91 707.8"/><polygon class="cls-22" points="235.22 682.07 241.74 708.25 230.86 689.94 202.79 667.22 202.79 660.58 235.22 682.07"/><path class="cls-20" d="M356.38,1129.88h0l7.81,113.86,29.32,21.6h69l29.31-21.6,7.81-113.86h0A227,227,0,0,0,356.38,1129.88Z" transform="translate(-294.29 -228.78)"/><path class="cls-19" d="M431.22,1016.73,428,892.07l-3.24,124.66C426.91,1016.7,429.06,1016.7,431.22,1016.73Z" transform="translate(-294.29 -228.78)"/><path class="cls-16" d="M428,1339.79s-62.7-.36-128,36.71l6.71,8.12s66.44-3.53,121.31-3.53,121.3,3.53,121.3,3.53l6.71-8.12C490.68,1339.43,428,1339.79,428,1339.79Z" transform="translate(-294.29 -228.78)"/><path class="cls-36" d="M356.38,1129.88l7.82,113.86,29.31,21.6s-21.29-60.94,37.71-80.15,68.37-55.31,68.37-55.31h0A227,227,0,0,0,356.38,1129.88Z" transform="translate(-294.29 -228.78)"/><path class="cls-9" d="M2094.61,742.16v16.23a4,4,0,0,1-1.17,2.83h0a4,4,0,0,0-1.18,2.83v14.64h8.58l9.62-3.46Z" transform="translate(-294.29 -228.78)"/><path class="cls-9" d="M2142.46,742.16v16.23a4,4,0,0,0,1.17,2.83h0a4,4,0,0,1,1.18,2.83v14.64h-8.58l-9.62-3.46Z" transform="translate(-294.29 -228.78)"/><polygon class="cls-9" points="1815.6 458.96 1796.88 464.24 1796.88 467.25 1815.94 464.36 1815.6 458.96"/><polygon class="cls-9" points="1816.69 473.4 1812.67 473.4 1799.39 466.73 1796.88 467.25 1796.88 470.07 1799.39 470.07 1806.92 477.41 1815.94 478.79 1816.69 473.4"/><polygon class="cls-9" points="1832.9 458.96 1851.62 464.24 1851.62 467.25 1832.56 464.36 1832.9 458.96"/><polygon class="cls-9" points="1831.81 473.4 1840.83 473.4 1849.11 466.73 1851.62 467.25 1851.62 470.07 1849.11 470.07 1841.58 477.41 1832.56 478.79 1831.81 473.4"/><path class="cls-11" d="M2130.53,716.15h0a19.66,19.66,0,0,1-1.37-6.1l-2.47-39.52a3.15,3.15,0,0,0-.93-2h0a3.18,3.18,0,0,0-1.56-.86h0c-.77-.17-10.56-.17-11.33,0h0a3.18,3.18,0,0,0-1.56.86h0a3.15,3.15,0,0,0-.93,2l-2.47,39.52a19.66,19.66,0,0,1-1.37,6.1h0a19.77,19.77,0,0,1-7.76,9.41l-4.29,2.75a4.25,4.25,0,0,0-2,3.58v6.61a4.23,4.23,0,0,0,.46,1.91l17.47,34.82h16.15l17.47-34.82a4.22,4.22,0,0,0,.45-1.91v-6.61a4.23,4.23,0,0,0-2-3.58l-4.28-2.75A19.77,19.77,0,0,1,2130.53,716.15Z" transform="translate(-294.29 -228.78)"/><path class="cls-9" d="M2145.36,678.33v-7.68h-6a.79.79,0,0,0-.78.79h0a.78.78,0,0,1-.79.78h-38.48a.78.78,0,0,1-.78-.78h0a.79.79,0,0,0-.79-.79h-6v7.68l-3.84,7.24h1.74l2.36-2.36h7.67l7.33-4.36h23.13l7.33,4.36h7.67l2.36,2.36h1.74Z" transform="translate(-294.29 -228.78)"/><path class="cls-8" d="M2125.2,732.6a1.89,1.89,0,0,1-.76-1.52v-5.73a5.91,5.91,0,0,0-8.1-5.48h0a5.91,5.91,0,0,0-3.71,5.48v5.73a1.89,1.89,0,0,1-.76,1.52h0a1.91,1.91,0,0,0-.76,1.53v3.47a1.89,1.89,0,0,0,.76,1.52l1.81,1.37h9.71l1.81-1.37a1.89,1.89,0,0,0,.76-1.52v-3.47A1.91,1.91,0,0,0,2125.2,732.6Z" transform="translate(-294.29 -228.78)"/></g></g></svg>