<?xml version="1.0" encoding="utf-8"?>
<!-- Generator: Adobe Illustrator 24.1.1, SVG Export Plug-In . SVG Version: 6.00 Build 0)  -->
<svg version="1.1" id="Слой_1" xmlns="http://www.w3.org/2000/svg" xmlns:xlink="http://www.w3.org/1999/xlink" x="0px" y="0px"
	 viewBox="0 0 1000 1000" style="enable-background:new 0 0 1000 1000;" xml:space="preserve">
<style type="text/css">
	.st0{fill:#FF0000;}
	.st1{fill:#0000FF;}
	.st2{fill:#7F7F7F;}
	.st3{fill:#FFFF00;}
	.st4{fill:none;stroke:#7F7F7F;stroke-miterlimit:10;}
	.st5{fill:#00FF00;}
	.st6{fill:none;stroke:#FF0000;stroke-miterlimit:10;}
</style>
<rect x="24" y="84" class="st0" width="4" height="4"/>
<rect x="36" y="100" class="st1" width="4" height="4"/>
<rect x="188" y="84" class="st1" width="4" height="4"/>
<rect x="188" y="88" class="st1" width="4" height="4"/>
<rect x="108" y="112" class="st1" width="4" height="4"/>
<rect x="140" y="76" class="st1" width="4" height="4"/>
<rect x="72" y="12" class="st1" width="4" height="4"/>
<rect x="97.1" class="st1" width="4" height="4"/>
<rect x="84.7" class="st1" width="4" height="4"/>
<rect x="108" y="104" class="st1" width="4" height="4"/>
<rect x="128" y="108" class="st1" width="4" height="4"/>
<rect x="44" y="112" class="st2" width="20" height="32"/>
<rect x="84" y="116" class="st3" width="4" height="4"/>
<rect x="88" y="116" class="st3" width="4" height="4"/>
<rect x="88" y="112" class="st3" width="4" height="4"/>
<rect x="84" y="112" class="st3" width="4" height="4"/>
<rect x="84" y="144" class="st3" width="4" height="4"/>
<rect x="80" y="152" class="st3" width="4" height="4"/>
<rect x="88" y="152" class="st3" width="4" height="4"/>
<rect x="84" y="160" class="st3" width="4" height="4"/>
<polyline class="st4" points="48,160 36,156 20,140 20,124 20,108 20,92 20,76 20,56 28,40 40,32 88,32 76,48 64,64 64,80 64,96 
	64,112 64,128 72,140 88,140 104,140 120,124 120,108 120,92 112,80 92,80 "/>
<polyline class="st4" points="32,76 32,68 36,56 44,48 44,64 44,80 44,96 44,112 44,128 44,144 48,160 60,168 76,168 92,168 
	108,168 124,156 136,148 140,136 140,120 140,104 140,88 124,72 108,72 92,72 80,72 76,84 76,100 76,116 80,128 84,132 92,132 
	100,124 100,108 100,96 "/>
<rect x="92" y="16" class="st5" width="8" height="4"/>
<polyline class="st4" points="76,48 100,48 128,52 144,56 160,72 160,88 160,104 160,120 "/>
<rect x="116" y="140" class="st1" width="4" height="4"/>
<rect x="160" y="128" class="st1" width="4" height="4"/>
<rect x="164" y="60" class="st1" width="4" height="4"/>
<rect x="80" y="64" class="st1" width="4" height="4"/>
<path class="st4" d="M176,104"/>
<polyline class="st4" points="140,136 156,136 172,136 188,136 192,136 192,120 192,104 192,88 192,72 176,72 176,88 176,104 
	184,104 184,120 176,120 "/>
<polyline class="st4" points="104,32 120,32 136,32 152,44 168,44 176,72 "/>
<path class="st4" d="M88,32"/>
<path class="st6" d="M24,32"/>
<path class="st6" d="M44,116"/>
<path class="st6" d="M64,120"/>
<path class="st6" d="M72,52"/>
<path class="st6" d="M72,32"/>
<line class="st6" x1="44" y1="92" x2="64" y2="92"/>
<rect x="148" y="108" class="st1" width="4" height="4"/>
<rect x="92" y="40" class="st3" width="4" height="4"/>
<rect x="96" y="40" class="st3" width="4" height="4"/>
<rect x="96" y="36" class="st3" width="4" height="4"/>
<rect x="92" y="36" class="st3" width="4" height="4"/>
<rect x="124" y="100" class="st5" width="4" height="4"/>
<rect x="120" y="92" class="st2" width="20" height="32"/>
<rect x="104" y="64" class="st5" width="4" height="4"/>
<rect x="84" y="96" width="4" height="4"/>
<rect x="148" y="100" width="4" height="4"/>
<rect x="112" y="148" class="st1" width="4" height="4"/>
<rect x="95.6" y="152" class="st1" width="4" height="4"/>
<rect x="68" y="156" class="st1" width="4" height="4"/>
<rect x="55.6" y="156" class="st1" width="4" height="4"/>
</svg>
