<?xml version="1.0" encoding="utf-8"?>
<!-- Generator: Adobe Illustrator 24.1.1, SVG Export Plug-In . SVG Version: 6.00 Build 0)  -->
<svg version="1.1" id="Слой_1" xmlns="http://www.w3.org/2000/svg" xmlns:xlink="http://www.w3.org/1999/xlink" x="0px" y="0px"
	 viewBox="0 0 1000 1000" style="enable-background:new 0 0 1000 1000;" xml:space="preserve">
<style type="text/css">
	.st0{fill:#FF0000;}
	.st1{fill:#FFFF00;}
	.st2{fill:#00FF00;}
	.st3{fill:none;stroke:#FF0000;stroke-miterlimit:10;}
	.st4{fill:#0000FF;}
	.st5{fill:none;stroke:#7F7F7F;stroke-miterlimit:10;}
</style>
<rect x="72" y="152" class="st0" width="4" height="4"/>
<rect x="360" y="308" class="st1" width="4" height="4"/>
<rect x="368" y="312" class="st1" width="4" height="4"/>
<rect x="376" y="308" class="st1" width="4" height="4"/>
<rect x="160" y="164" class="st1" width="4" height="4"/>
<rect x="180" y="124" class="st1" width="4" height="4"/>
<rect x="168" y="204" class="st1" width="4" height="4"/>
<rect x="260" y="196" class="st1" width="4" height="4"/>
<rect x="388" y="276" class="st1" width="4" height="4"/>
<rect x="384" y="324" class="st1" width="4" height="4"/>
<rect x="392" y="320" class="st1" width="4" height="4"/>
<rect x="360" y="356" class="st2" width="8" height="4"/>
<line class="st3" x1="80" y1="160" x2="68" y2="148"/>
<rect x="384" y="356" class="st4" width="4" height="4"/>
<rect x="192" y="188" class="st4" width="4" height="4"/>
<rect x="272" y="256" class="st4" width="4" height="4"/>
<rect x="236" y="280" class="st4" width="4" height="4"/>
<rect x="260" y="296" class="st4" width="4" height="4"/>
<rect x="364" y="340" class="st4" width="4" height="4"/>
<rect x="372" y="348" class="st4" width="4" height="4"/>
<rect x="376" y="344" class="st4" width="4" height="4"/>
<rect x="380" y="352" class="st4" width="4" height="4"/>
<rect x="140" y="124" class="st4" width="4" height="4"/>
<polyline class="st5" points="104,128 124,140 136,132 136,116 132,116 116,112 104,84 112,80 132,76 152,84 176,88 200,124 
	200,140 192,160 184,168 180,168 180,168 160,180 168,188 184,188 188,176 196,176 208,172 "/>
<path class="st5" d="M120,116"/>
<polyline class="st5" points="128,96 148,100 156,124 156,148 136,160 112,160 96,144 92,132 80,136 80,144 80,188 64,188 64,172 
	64,144 64,120 76,108 92,104 104,112 104,128 "/>
<polyline class="st5" points="252,220 264,220 272,232 264,248 252,256 236,268 228,284 232,300 244,308 264,308 280,304 288,300 
	304,288 348,296 348,372 356,372 384,372 404,372 404,352 404,320 404,284 400,264 376,260 356,264 304,268 292,272 284,272 
	280,284 264,284 256,276 276,264 276,264 280,264 288,256 296,236 296,220 272,184 248,180 228,172 208,172 "/>
<path class="st5" d="M208,276"/>
<polyline class="st5" points="252,220 244,196 224,192 208,192 192,204 184,208 168,212 148,212 136,204 132,188 140,172 156,160 
	168,152 176,136 168,124 156,124 "/>
<rect x="228" y="180" width="4" height="4"/>
<rect x="344" y="280" width="4" height="4"/>
<rect x="180" y="144" width="4" height="4"/>
<rect x="168" y="100" class="st2" width="4" height="4"/>
<rect x="136" y="140" class="st2" width="4" height="4"/>
<rect x="116" y="88" class="st2" width="4" height="4"/>
<rect x="152" y="192" class="st2" width="4" height="4"/>
<rect x="280" y="216" class="st2" width="4" height="4"/>
<rect x="308" y="280" class="st2" width="4" height="4"/>
</svg>
