<?xml version="1.0" encoding="utf-8"?>
<!-- Generator: Adobe Illustrator 24.1.1, SVG Export Plug-In . SVG Version: 6.00 Build 0)  -->
<svg version="1.1" id="Слой_1" xmlns="http://www.w3.org/2000/svg" xmlns:xlink="http://www.w3.org/1999/xlink" x="0px" y="0px"
	 viewBox="0 0 1000 1000" style="enable-background:new 0 0 1000 1000;" xml:space="preserve">
<style type="text/css">
	.st0{fill:none;stroke:#FF0000;stroke-miterlimit:10;}
	.st1{fill:none;stroke:#7F7F7F;stroke-miterlimit:10;}
	.st2{fill:#FF0000;}
	.st3{fill:#FFFF00;}
	.st4{fill:none;}
	.st5{fill:none;stroke:#7F7F7F;stroke-width:1;stroke-miterlimit:9.9999;}
	.st6{fill:#7F7F7F;}
</style>
<g id="Слой_1_1_">
	<path class="st0" d="M72,32"/>
	<polyline class="st1" points="64,80 48,96 48,112 48,128 48,144 64,160 80,160 96,160 112,160 128,160 176,160 	"/>
	<polyline class="st1" points="96,80 80,80 64,80 48,64 48,48 48,32 64,16 80,16 96,16 112,16 128,16 144,32 144,48 144,64 128,80 
		224,80 224,112 224,128 224,144 224,160 216,160 216,220 64,220 64,160 	"/>
	<polygon class="st1" points="64,56 72,64 80,56 80,40 72,32 64,40 	"/>
	<polygon class="st1" points="128,40 120,32 112,40 112,56 120,64 128,56 	"/>
	<line class="st1" x1="96" y1="40" x2="96" y2="56"/>
	<path class="st1" d="M88,16"/>
	<path class="st1" d="M88,16"/>
	<path class="st1" d="M104,16"/>
	<path class="st1" d="M104,80"/>
	<path class="st1" d="M88,80"/>
	<rect x="104" y="64" class="st2" width="4" height="4"/>
	<rect x="68" y="40" class="st3" width="4" height="4"/>
	<rect x="72" y="44" class="st3" width="4" height="4"/>
	<rect x="68" y="48" class="st3" width="4" height="4"/>
	<rect x="72" y="52" class="st3" width="4" height="4"/>
	<rect x="116" y="40" class="st3" width="4" height="4"/>
	<rect x="120" y="44" class="st3" width="4" height="4"/>
	<rect x="116" y="48" class="st3" width="4" height="4"/>
	<rect x="120" y="52" class="st3" width="4" height="4"/>
	<polyline class="st3" points="120,80 96,80 92,80 	"/>
	<path class="st3" d="M100,80"/>
	<line class="st4" x1="92" y1="16" x2="96" y2="16"/>
	<line class="st4" x1="96" y1="16" x2="100" y2="16"/>
</g>
<g id="Слой_2_1_">
</g>
<line class="st1" x1="96" y1="80" x2="116" y2="80"/>
<rect x="62.3" y="102.3" transform="matrix(0.7071 -0.7071 0.7071 0.7071 -56.4716 79.6648)" class="st5" width="11.3" height="11.3"/>
<rect x="114.3" y="134.3" transform="matrix(0.7071 -0.7071 0.7071 0.7071 -63.8689 125.8066)" class="st5" width="11.3" height="11.3"/>
<line class="st1" x1="168" y1="160" x2="168" y2="212"/>
<line class="st1" x1="160" y1="220" x2="160" y2="168"/>
<line class="st1" x1="152" y1="160" x2="152" y2="212"/>
<line class="st1" x1="144" y1="220" x2="144" y2="168"/>
<line class="st1" x1="136" y1="160" x2="136" y2="212"/>
<line class="st1" x1="128" y1="220" x2="128" y2="168"/>
<path class="st1" d="M120,160"/>
<line class="st1" x1="120" y1="212" x2="120" y2="160"/>
<line class="st1" x1="112" y1="220" x2="112" y2="168"/>
<line class="st1" x1="104" y1="160" x2="104" y2="212"/>
<line class="st1" x1="96" y1="220" x2="96" y2="168"/>
<line class="st1" x1="88" y1="160" x2="88" y2="212"/>
<line class="st1" x1="80" y1="220" x2="80" y2="168"/>
<line class="st1" x1="72" y1="160" x2="72" y2="212"/>
<rect x="64" y="160" class="st3" width="4" height="4"/>
<rect x="64" y="164" class="st3" width="4" height="4"/>
<rect x="68" y="160" class="st3" width="4" height="4"/>
<rect x="68" y="164" class="st3" width="4" height="4"/>
<rect x="108" y="16" class="st6" width="20" height="16"/>
<rect x="64" y="144" class="st6" width="44" height="16"/>
<rect x="188" y="80" class="st6" width="20" height="80"/>
</svg>
